# xmcd CD database file
#
# Track frame offsets:
#	150
#	24154
#	48156
#	68751
#	88475
#	109508
#	132864
#	154140
#	172173
#	191852
#	208254
#
# Disc length: 3004 seconds
#
# Revision: 0
# Processed by: cddbd v1.5.2PL0 Copyright (c) Steve Scherf et al.
# Submitted via: CDex 1.79
#
DISCID=9a0bba0b
DTITLE=Sinne Eeg - Face the Music
DYEAR=2014
DGENRE=Jazz
TTITLE0=What a little moonlight can do
TTITLE1=Crowded Heart
TTITLE2=The best I ever had
TTITLE3=High up in the sky
TTITLE4=Somewhere
TTITLE5=Let's face the music and dance
TTITLE6=Taking it slow
TTITLE7=New Horizons
TTITLE8=I draw a circle
TTITLE9=What are you doing the rest of your life
TTITLE10=Caravan
EXTD=YEAR: 2014
EXTT0=
EXTT1=
EXTT2=
EXTT3=
EXTT4=
EXTT5=
EXTT6=
EXTT7=
EXTT8=
EXTT9=
EXTT10=
PLAYORDER=
